<svg xmlns="http://www.w3.org/2000/svg" width="272.917" height="95.379" preserveAspectRatio="none" viewBox="109.486 185.259 272.917 95.379"><path d="M146.321 279.485q-9.751 0-17.861-2.965-8.11-2.967-13.084-8.746-4.975-5.778-5.474-14.268-.198-3.477 1.095-7.671 1.294-4.194 3.632-8.335a36 36 0 0 1 5.572-7.467q3.235-3.325 6.916-5.062.298-.206.945-.308a7 7 0 0 1 .945-.102q.598 0 .598.307 0 .511-1.493 1.637-4.18 3.374-6.866 7.772a35 35 0 0 0-4.179 9.41 37.6 37.6 0 0 0-1.394 10.126q0 6.035 2.539 10.381 2.537 4.348 6.815 7.16 4.28 2.813 9.752 4.143t11.443 1.329q6.667 0 13.185-1.534t11.891-4.398q8.258-4.5 13.085-11.148 4.826-6.65 4.826-13.195 0-3.477-1.443-6.648t-4.627-5.727q-2.388-1.944-5.822-3.683a123 123 0 0 0-7.263-3.375 318 318 0 0 1-7.512-3.324q-3.683-1.688-6.469-3.631-3.98-2.762-5.82-5.932-1.842-3.171-1.842-6.342 0-3.784 2.139-7.364 2.14-3.58 5.871-6.494 3.732-2.916 8.408-4.552 4.081-1.432 8.906-2.251a57 57 0 0 1 9.504-.817q3.88 0 7.412.562 3.534.563 6.22 1.995 3.383 1.636 5.174 4.346t1.791 5.677q0 4.091-3.582 7.159a20.5 20.5 0 0 1-2.886 1.893q-1.592.869-3.781 1.483a3.6 3.6 0 0 1-.895.103q-1.195 0-1.195-.717 0-.409.648-.869.646-.46 1.94-.563 2.985-.41 4.527-2.353 1.543-1.942 1.543-4.5 0-2.658-1.742-5.267-1.742-2.608-5.323-4.398t-9.155-1.79q-3.184 0-7.015.716t-8.309 2.353q-5.472 1.942-9.105 5.727-3.632 3.784-3.632 8.081 0 2.658 1.742 5.369t5.621 5.165q3.285 2.045 7.463 4.041 4.18 1.993 8.459 3.988t7.761 4.245q5.474 3.477 7.861 7.466 2.388 3.989 2.388 8.182 0 4.91-2.836 9.871-2.836 4.96-7.413 9.307a61.2 61.2 0 0 1-10.05 7.723q-6.368 3.886-14.379 5.983a63.6 63.6 0 0 1-16.17 2.096m78.494-9.102q-2.29 0-4.031-1.331-1.741-1.328-1.741-5.42 0-1.74.249-3.273t.646-3.273q-.895 1.534-2.487 3.784a48 48 0 0 1-3.533 4.399q-1.94 2.147-3.98 3.58-2.04 1.431-3.83 1.431-2.589 0-4.18-2.404-1.592-2.402-1.592-6.29 0-4.194 1.891-9 1.89-4.807 5.174-9.205 3.284-4.399 7.562-7.16t8.955-2.762q2.29 0 4.379.767 2.09.767 3.682 2.507.696.716.697 1.635 0 .615-.498 1.023-.498.41-1.293.205-1.095-3.58-4.678-3.58-1.692 0-3.88 1.126-2.688 1.431-5.722 4.551-3.036 3.119-5.671 7.058-2.638 3.937-4.33 7.926-1.69 3.989-1.691 7.261 0 3.376 2.488 3.376 2.188 0 4.527-2.148 2.339-2.147 4.478-5.369a104 104 0 0 0 3.93-6.393q1.791-3.171 2.787-5.114 1.492-2.761 2.786-4.603 1.293-1.84 3.681-1.84 1.095 0 2.19.306a5.2 5.2 0 0 0 2.288.103q-2.985 3.068-5.224 7.262-2.238 4.192-3.433 8.233t-1.194 6.801q0 3.069 1.99 3.069 1.593 0 3.434-1.841 1.84-1.841 3.582-4.654a81 81 0 0 0 3.234-5.727q1.492-2.916 2.387-5.063.498 0 .846.102.35.102.349.818a3.7 3.7 0 0 1-.349.87 25 25 0 0 0-.746 1.584 372 372 0 0 1-2.189 4.399 52 52 0 0 1-3.284 5.574q-1.89 2.813-4.08 4.757-2.189 1.943-4.576 1.943m14.129-20.354q.795-1.739 2.09-5.575a242 242 0 0 0 2.687-8.54q1.392-4.706 2.089-8.898.299-1.636 1.094-2.404.797-.767 1.692-.767 1.294 0 2.388 1.279 1.095 1.278 1.095 3.63 0 2.864-1.642 4.91t-4.03 3.887q.996.102 2.089.153 1.095.051 2.389.052 4.677 0 9.254-.614.199.613.199.92 0 1.329-.746 3.375a39 39 0 0 1-1.543 3.682q-.397.921-1.592 3.324a209 209 0 0 0-2.587 5.422 54 54 0 0 0-2.339 5.932q-.945 2.914-.945 4.96 0 2.66 1.99 2.66 1.891 0 5.274-4.552 3.384-4.55 6.767-12.529 1.193 0 1.194.92-1.095 2.763-2.737 6.034a53 53 0 0 1-3.632 6.189q-1.99 2.914-4.278 4.806-2.289 1.893-4.777 1.893-1.89 0-3.781-1.585-1.891-1.586-1.891-5.166 0-3.17 1.195-6.187a46.5 46.5 0 0 1 2.686-5.677 334 334 0 0 1 2.687-4.705q1.194-2.045 1.194-3.273 0-1.84-2.239-2.66-2.238-.818-5.821-.92a551 551 0 0 1-2.687 6.956q-.895 2.25-1.691 4.295-1.592 0-1.095-1.227m28.953 20.763q-3.085 0-4.279-1.637-1.194-1.636-1.194-4.194 0-2.659.895-6.034.896-3.375 2.389-7.569-1.095 0-1.095-1.022a214 214 0 0 0 1.741-4.654q.945-2.609.945-5.881 0-1.637-.397-2.762-.399-1.125-1.194-1.329l1.044-.205a92 92 0 0 1 2.239-.409q1.194-.205 1.593-.205.596-.102 1.094-.153.497-.051.896-.051.995 0 1.343.818.349.819.249 3.58-.1 2.557-.996 6.187-.894 3.632-1.89 6.291a126 126 0 0 0-2.389 7.057q-1.093 3.58-1.094 5.932.001 2.046 1.094 2.66.797.307 1.394.306 2.288 0 4.477-2.249t4.131-5.472q1.939-3.223 3.233-6.188-.597-2.353-.597-5.625 0-3.478.796-7.059t2.488-5.982q1.692-2.404 4.378-2.404 1.891 0 1.891 1.738 0 .41-.945 3.479a183 183 0 0 1-2.438 7.261 127 127 0 0 1-3.185 8.081q-.398.817-.696 1.635.398 1.74 1.493 2.813 1.093 1.074 2.686 1.074 1.99 0 3.732-1.892 1.741-1.892 3.632-6.392 1.193 0 1.194.92-1.592 4.092-3.832 6.546-2.238 2.454-5.024 2.455-3.384 0-4.876-3.58a44.7 44.7 0 0 1-3.981 6.802q-2.288 3.222-5.025 5.267-2.736 2.045-5.92 2.046m34.625-.307q-3.682 0-6.618-2.455-2.935-2.455-2.935-7.466 0-4.195 1.84-8.899a39 39 0 0 1 4.877-8.847q3.034-4.142 6.766-6.751t7.513-2.608q1.89 0 3.682 1.126 1.79 1.124 1.791 3.886 0 2.558-1.891 5.625-1.89 3.069-5.373 5.728-1.494 1.125-3.781 2.148a36 36 0 0 1-4.578 1.688q-2.289.664-3.781.664-.498 1.227-.946 3.274a19.6 19.6 0 0 0-.447 4.193q0 2.556.994 4.603.996 2.045 3.682 2.046 3.284 0 6.12-1.945 2.837-1.942 5.075-4.909a42.5 42.5 0 0 0 3.83-6.034q1.593-3.07 2.488-5.216 1.195 0 1.194.92a241 241 0 0 1-2.935 6.239 36.5 36.5 0 0 1-3.88 6.29 19.3 19.3 0 0 1-5.374 4.808q-3.135 1.892-7.313 1.892m-1.791-18.001q1.392 0 4.676-1.075 3.284-1.073 5.97-3.425 2.588-2.353 3.981-5.166t1.392-4.756q0-2.25-1.591-2.251-1.195 0-3.284 1.637-2.09 1.637-5.174 5.523a53 53 0 0 0-3.583 5.319q-1.69 2.864-2.387 4.194m22.175 18.001q-4.08 0-6.617-2.609-2.537-2.607-2.537-5.472-.001-2.351 1.144-4.347 1.144-1.994 3.034-1.994l.1-.204a217 217 0 0 0 4.229-8.336 342 342 0 0 1 4.528-9.052q2.089-3.99 4.527-6.546t5.721-2.557q.796 0 2.19.358t1.392 1.483q.001.818-.895.819-.696 0-1.542-.409-.845-.41-1.344-.41-1.89 0-3.184 2.25a9.5 9.5 0 0 0-1.293 4.808q0 2.761.895 4.96a33.4 33.4 0 0 0 2.09 4.245 37.5 37.5 0 0 1 2.09 4.142q.896 2.097.896 4.552 0 4.908-1.842 7.927-1.84 3.017-4.826 4.551h.1q5.274 0 8.707-5.063 3.433-5.064 6.816-13.245 1.194 0 1.194.92a111 111 0 0 1-4.179 9.001q-2.289 4.398-5.374 7.261-3.084 2.865-7.562 2.865-1.892 0-3.483-.409-2.288.51-4.975.511m-1.492-10.842q0 2.454 1.094 4.705t3.98 3.375q2.586-1.534 4.03-4.756a16.2 16.2 0 0 0 1.443-6.7q0-2.863-.597-5.829a255 255 0 0 0-1.243-5.83q-.649-2.864-.648-5.114 0-.717.05-1.279.05-.563.149-1.073-1.792 2.76-3.631 6.443-1.841 3.682-3.533 7.057t-3.085 5.524q1.99.306 1.991 3.477m-3.285 5.114q0 1.637 1.095 2.864 1.095 1.228 3.284 1.228.995 0 1.89-.205-2.089-1.33-3.333-3.375-1.244-2.047-1.244-4.705-.895 1.023-1.294 2.096a6 6 0 0 0-.398 2.097m19.603 6.137a3608 3608 0 0 0 8.707-18.462 1474 1474 0 0 1 9.304-19.484 672 672 0 0 1 9.453-18.717q1.69-3.068 3.134-4.807 1.445-1.74 3.831-1.74.897 0 2.09.308 1.194.306 2.289.102-1.294 1.432-3.533 5.012-2.238 3.578-4.975 8.591a751 751 0 0 0-5.771 10.79 631 631 0 0 0-5.971 11.661q-2.935 5.88-5.423 10.995a77 77 0 0 1 4.08-5.012q2.09-2.353 4.08-4.092 2.189-2.045 5.522-4.295a56 56 0 0 1 6.667-3.887q3.333-1.636 5.324-1.636.696 0 .995.102l-1.095 2.045a465 465 0 0 0-2.736 5.217 213 213 0 0 0-3.384 6.853 109 109 0 0 0-3.035 7.006q-1.293 3.324-1.691 5.472-.298 1.636-.298 2.762 0 1.637.596 2.198.598.563 1.295.564 1.691-.001 3.631-1.79 1.94-1.791 3.831-4.552a59 59 0 0 0 3.532-5.881q1.642-3.12 2.637-5.881 1.195 0 1.195.92-1.095 2.763-2.737 6.086a47 47 0 0 1-3.732 6.29q-2.09 2.966-4.576 4.909-2.488 1.944-5.275 1.944-1.989 0-4.08-1.433-2.089-1.43-2.088-5.215 0-1.126.198-2.404.2-1.279.697-2.915.597-2.045 1.99-4.552 1.393-2.505 3.582-6.29.995-1.739.995-2.761 0-1.228-1.194-1.228-.995 0-2.686 1.023-1.692 1.023-4.279 3.58-2.488 2.455-6.17 7.16-3.68 4.704-7.861 13.194-.696 1.329-1.542 1.381-.846.05-2.239.153-.896.102-1.791.153-.896.051-1.493.563" style="fill:#fff;text-wrap-mode:nowrap;transform-origin:245.944px 232.948px" transform="rotate(.486)"/></svg>